# xmcd CD database file
#
# Track frame offsets:
#	150
#	26725
#	46148
#	70291
#	81961
#	102280
#	124501
#	155158
#	176265
#	192390
#
# Disc length: 2836 seconds
#
# Revision: 0
# Processed by: cddbd v1.5.2PL0 Copyright (c) Steve Scherf et al.
# Submitted via: CDex 1.70beta2
#
DISCID=810b120a
DTITLE=Bob James and Howard Paul  - Just Friends: the Hamilton Hall Sessions
DYEAR=2011
DGENRE=Jazz
TTITLE0=Alone Together
TTITLE1=Autumn Leaves
TTITLE2=Emily
TTITLE3=Just Friends
TTITLE4=Laura
TTITLE5=Out Of Nowhere
TTITLE6=I Only Have Eyes For You
TTITLE7=Georgia On My Mind
TTITLE8=Moon River
TTITLE9=But Beautiful
EXTD=YEAR: 2011
EXTT0=
EXTT1=
EXTT2=
EXTT3=
EXTT4=
EXTT5=
EXTT6=
EXTT7=
EXTT8=
EXTT9=
PLAYORDER=
